<mxfile host="app.diagrams.net" modified="2022-11-04T01:25:07.213Z" agent="5.0 (Windows NT 10.0; Win64; x64) AppleWebKit/537.36 (KHTML, like Gecko) Chrome/107.0.0.0 Safari/537.36" etag="4wns_8d4hSbZ8Jw_IRVQ" version="20.5.1" type="github">
  <diagram id="R2lEEEUBdFMjLlhIrx00" name="Page-1">
    <mxGraphModel dx="593" dy="299" grid="1" gridSize="10" guides="1" tooltips="1" connect="1" arrows="1" fold="1" page="1" pageScale="1" pageWidth="850" pageHeight="1100" math="0" shadow="0" extFonts="Permanent Marker^https://fonts.googleapis.com/css?family=Permanent+Marker">
      <root>
        <mxCell id="0" />
        <mxCell id="1" parent="0" />
        <mxCell id="C-vyLk0tnHw3VtMMgP7b-1" value="" style="endArrow=ERmany;startArrow=none;endFill=0;startFill=0;rounded=0;entryX=0;entryY=0.5;entryDx=0;entryDy=0;" parent="1" source="LMSd8uTH7AQYFOmFK5gn-2" target="LMSd8uTH7AQYFOmFK5gn-13" edge="1">
          <mxGeometry width="100" height="100" relative="1" as="geometry">
            <mxPoint x="340" y="720" as="sourcePoint" />
            <mxPoint x="480.7500000000002" y="159.17999999999995" as="targetPoint" />
            <Array as="points">
              <mxPoint x="480" y="159" />
            </Array>
          </mxGeometry>
        </mxCell>
        <mxCell id="C-vyLk0tnHw3VtMMgP7b-12" value="" style="edgeStyle=entityRelationEdgeStyle;endArrow=ERone;startArrow=none;endFill=0;startFill=0;entryX=1;entryY=0;entryDx=0;entryDy=0;" parent="1" source="LMSd8uTH7AQYFOmFK5gn-4" edge="1">
          <mxGeometry width="100" height="100" relative="1" as="geometry">
            <mxPoint x="400" y="180" as="sourcePoint" />
            <mxPoint x="410" y="270" as="targetPoint" />
          </mxGeometry>
        </mxCell>
        <mxCell id="LMSd8uTH7AQYFOmFK5gn-2" value="&lt;b&gt;&lt;font style=&quot;font-size: 11px;&quot;&gt;cria&lt;/font&gt;&lt;/b&gt;" style="rhombus;whiteSpace=wrap;html=1;" vertex="1" parent="1">
          <mxGeometry x="345" y="120" width="80" height="80" as="geometry" />
        </mxCell>
        <mxCell id="LMSd8uTH7AQYFOmFK5gn-3" value="" style="endArrow=none;startArrow=ERone;endFill=1;startFill=0;" edge="1" parent="1" target="LMSd8uTH7AQYFOmFK5gn-2">
          <mxGeometry width="100" height="100" relative="1" as="geometry">
            <mxPoint x="290" y="160" as="sourcePoint" />
            <mxPoint x="490" y="185" as="targetPoint" />
          </mxGeometry>
        </mxCell>
        <mxCell id="LMSd8uTH7AQYFOmFK5gn-4" value="&lt;b style=&quot;font-size: 11px;&quot;&gt;ExpÃµe&lt;/b&gt;" style="rhombus;whiteSpace=wrap;html=1;fontSize=11;" vertex="1" parent="1">
          <mxGeometry x="510" y="230" width="80" height="80" as="geometry" />
        </mxCell>
        <mxCell id="LMSd8uTH7AQYFOmFK5gn-5" value="" style="edgeStyle=entityRelationEdgeStyle;endArrow=none;startArrow=ERmany;endFill=1;startFill=0;" edge="1" parent="1" target="LMSd8uTH7AQYFOmFK5gn-4">
          <mxGeometry width="100" height="100" relative="1" as="geometry">
            <mxPoint x="610" y="160" as="sourcePoint" />
            <mxPoint x="690" y="395" as="targetPoint" />
          </mxGeometry>
        </mxCell>
        <mxCell id="LMSd8uTH7AQYFOmFK5gn-6" value="&lt;b style=&quot;font-size: 11px;&quot;&gt;1&lt;/b&gt;" style="text;html=1;align=center;verticalAlign=middle;resizable=0;points=[];autosize=1;strokeColor=none;fillColor=none;fontSize=11;" vertex="1" parent="1">
          <mxGeometry x="290" y="130" width="30" height="30" as="geometry" />
        </mxCell>
        <mxCell id="LMSd8uTH7AQYFOmFK5gn-10" value="&lt;b style=&quot;font-size: 11px;&quot;&gt;N&lt;/b&gt;" style="text;html=1;align=center;verticalAlign=middle;resizable=0;points=[];autosize=1;strokeColor=none;fillColor=none;fontSize=11;" vertex="1" parent="1">
          <mxGeometry x="460" y="130" width="30" height="30" as="geometry" />
        </mxCell>
        <mxCell id="LMSd8uTH7AQYFOmFK5gn-12" value="" style="rounded=0;whiteSpace=wrap;html=1;" vertex="1" parent="1">
          <mxGeometry x="170" y="130" width="120" height="60" as="geometry" />
        </mxCell>
        <mxCell id="LMSd8uTH7AQYFOmFK5gn-13" value="&lt;span style=&quot;font-weight: 700;&quot;&gt;Obras de Arte&amp;nbsp;&lt;/span&gt;" style="rounded=0;whiteSpace=wrap;html=1;" vertex="1" parent="1">
          <mxGeometry x="490" y="130" width="120" height="60" as="geometry" />
        </mxCell>
        <mxCell id="LMSd8uTH7AQYFOmFK5gn-17" value="&lt;span style=&quot;font-size: 12px; font-weight: 700;&quot;&gt;Galeria&lt;/span&gt;" style="rounded=0;whiteSpace=wrap;html=1;fontFamily=Helvetica;fontSize=11;fontColor=default;" vertex="1" parent="1">
          <mxGeometry x="310" y="240" width="120" height="60" as="geometry" />
        </mxCell>
        <mxCell id="LMSd8uTH7AQYFOmFK5gn-23" value="&lt;b&gt;N:1&lt;/b&gt;" style="text;html=1;align=center;verticalAlign=middle;resizable=0;points=[];autosize=1;strokeColor=none;fillColor=none;fontSize=11;fontFamily=Helvetica;fontColor=default;" vertex="1" parent="1">
          <mxGeometry x="600" y="200" width="40" height="30" as="geometry" />
        </mxCell>
        <mxCell id="LMSd8uTH7AQYFOmFK5gn-24" value="&lt;b&gt;1&lt;/b&gt;" style="text;html=1;align=center;verticalAlign=middle;resizable=0;points=[];autosize=1;strokeColor=none;fillColor=none;fontSize=11;fontFamily=Helvetica;fontColor=default;" vertex="1" parent="1">
          <mxGeometry x="425" y="245" width="30" height="30" as="geometry" />
        </mxCell>
        <mxCell id="LMSd8uTH7AQYFOmFK5gn-25" value="&lt;b&gt;ER Museu de Arte&amp;nbsp;&lt;/b&gt;" style="text;html=1;align=center;verticalAlign=middle;resizable=0;points=[];autosize=1;strokeColor=none;fillColor=none;fontSize=11;fontFamily=Helvetica;fontColor=default;" vertex="1" parent="1">
          <mxGeometry x="160" y="80" width="130" height="30" as="geometry" />
        </mxCell>
        <mxCell id="LMSd8uTH7AQYFOmFK5gn-26" value="&lt;b&gt;&lt;font style=&quot;font-size: 12px;&quot;&gt;Artista&lt;/font&gt;&lt;/b&gt;" style="text;html=1;align=center;verticalAlign=middle;resizable=0;points=[];autosize=1;strokeColor=none;fillColor=none;fontSize=11;fontFamily=Helvetica;fontColor=default;" vertex="1" parent="1">
          <mxGeometry x="200" y="145" width="60" height="30" as="geometry" />
        </mxCell>
      </root>
    </mxGraphModel>
  </diagram>
</mxfile>
